# xmcd
#
# Track frame offsets:
#      174
#      26907
#      46930
#      70519
#      92691
#      113612
#      138664
#      162551
#      180099
#      201625
# 
# Disc length: 2910 seconds
#
# Revision: 1
# Processed by: cddbd v1.5.1PL2 Copyright (c) Steve Scherf et al.
#
# Submitted via: FreeRIP 1.21
#
DISCID=860b5c0a
DTITLE=Abhijeet Sawant - Aapka... Abhijeet Sawant
DYEAR=2004
DGENRE=Hindi
TTITLE0=Mohabbatein Lutaaunga
TTITLE1=Lafzon Mein
TTITLE2=Jaana (ft. Prajakta Shukre)
TTITLE3=Kya Tujhe Pata Hai
TTITLE4=Janam Janam
TTITLE5=Lamha
TTITLE6=Yaaron Chalo
TTITLE7=Dream Girl
TTITLE8=Ek Jahan (One World, ft. Indian Idol Finalists)
TTITLE9=Mohabbatein Lutaaunga (winning performance)
EXTD=
EXTT0=
EXTT1=
EXTT2=
EXTT3=
EXTT4=
EXTT5=
EXTT6=
EXTT7=
EXTT8=
EXTT9=
PLAYORDER=
